PathFileType	4	(X/Y/Z)	RUN4																																																													
DataRate	CameraRate	NumFrames	NumMarkers	Units	OrigDataRate	OrigDataStartFrame	OrigNumFrames																																																									
72	72	8	21	mm	72	428	854																																																									
Frame#	Time	Hand_Start			Hand_Thumb1			Hand_Thumb2			Hand_Thumb3			Hand_Index1			Hand_Index2			Hand_Index3			Hand_Middle1			Hand_Middle2			Hand_Middle3			Hand_Ring1			Hand_Ring2			Hand_Ring3			Hand_Pinky1			Hand_Pinky2			Hand_Pinky3			Hand_ThumbTip			Hand_IndexTip			Hand_MiddleTip			Hand_RingTip			Hand_PinkyTip		
		X1	Y1	Z1	X2	Y2	Z2	X3	Y3	Z3	X4	Y4	Z4	X5	Y5	Z5	X6	Y6	Z6	X7	Y7	Z7	X8	Y8	Z8	X9	Y9	Z9	X10	Y10	Z10	X11	Y11	Z11	X12	Y12	Z12	X13	Y13	Z13	X14	Y14	Z14	X15	Y15	Z15	X16	Y16	Z16	X17	Y17	Z17	X18	Y18	Z18	X19	Y19	Z19	X20	Y20	Z20	X21	Y21	Z21
																																																																
428	5.930555556	160.5678	98.65443	-321.7579	137.8743	133.3772	-352.3125	121.0567	145.7382	-378.3362	112.0037	156.3714	-410.0726	165.4114	178.0271	-385.1471	145.2775	182.2668	-418.1777	125.2032	175.662	-431.4151	180.1344	162.6338	-393.6233	148.4208	160.743	-424.1292	136.3893	144.9277	-404.0261	184.3805	142.7474	-400.0929	150.576	138.3895	-421.0497	138.1693	127.1304	-399.539	184.1689	120.7555	-404.4219	155.2821	121.3049	-417.0229	145.1076	115.1686	-399.9017	103.5248	162.6072	-433.038	106.3013	165.6216	-439.7586	147.6746	143.7099	-381.0316	149.5801	126.026	-377.3052	153.4177	114.3374	-378.9775
429	5.944444444	161.8127	101.4467	-315.3891	139.601	136.1955	-346.2644	123.2582	148.5597	-372.5873	114.7123	159.3304	-404.4178	167.6167	181.0763	-378.3743	147.9793	185.2516	-411.7106	128.1719	178.6375	-425.3395	182.532	165.7524	-386.6376	151.2364	163.7055	-417.5623	138.9954	147.8383	-397.6272	186.9466	145.9019	-393.1041	153.4678	141.4454	-414.5571	140.7294	130.0969	-393.2887	186.8706	123.9264	-397.5207	158.1459	124.3771	-410.4906	147.733	118.1406	-393.5497	106.5944	165.6679	-427.4857	109.4737	168.6472	-434.1869	150.0254	146.728	-374.5038	151.833	129.0104	-370.899	155.8016	117.2898	-372.5321
430	5.958333333	163.1836	104.0144	-309.7211	141.0437	138.561	-340.8729	125.0644	150.7662	-367.4915	117.0676	161.524	-399.4687	168.9484	184.1787	-372.0279	149.914	188.1813	-405.733	130.5315	181.2874	-419.8264	184.3208	169.1849	-380.055	153.7711	166.7772	-411.6914	141.4168	150.5837	-392.0914	189.2392	149.4633	-386.5528	156.2928	144.4944	-408.7059	143.3525	132.8124	-387.742	189.6614	127.5219	-391.1161	161.1581	127.4682	-404.5732	150.6089	120.9313	-387.8313	109.3837	167.8109	-422.6984	112.224	171.0149	-429.1544	152.038	149.6125	-368.7713	154.087	131.8621	-365.1668	158.383	120.1411	-366.7005
431	5.972222222	164.6003	106.2142	-307.6098	141.9826	140.515	-338.6905	126.0827	152.6062	-365.4086	118.4125	163.4292	-397.4437	169.0673	187.2956	-368.8268	150.4426	191.0699	-402.7863	131.4404	183.6622	-417.1345	184.9976	172.8529	-376.7768	155.121	169.9937	-409.0127	142.8859	153.2608	-389.7949	190.5912	153.365	-383.4313	158.1071	147.6207	-406.0743	145.2683	135.4236	-385.3426	191.7236	131.5044	-388.2546	163.3368	130.6599	-401.9297	152.9045	123.632	-385.3136	111.0282	169.6989	-420.775	113.545	172.8098	-426.6046	153.2198	152.4323	-366.3404	155.8493	134.6918	-362.687	160.6121	122.9181	-364.1559
432	5.986111111	166.737	110.4022	-303.8912	143.3847	144.813	-334.3026	127.5716	157.2022	-360.9356	120.3237	168.7164	-392.8277	169.1366	193.6886	-362.1947	151.2809	197.8336	-396.522	132.9378	190.0397	-411.509	185.8703	180.2278	-370.2173	156.9732	177.2001	-403.3191	145.0271	159.375	-384.9188	192.4691	161.2416	-377.3815	160.7838	154.813	-400.9534	148.05	141.4873	-380.8618	194.6717	139.6312	-382.9111	166.6013	137.9316	-397.1483	156.232	129.9378	-380.9342	113.3204	175.4155	-416.1573	115.7237	178.636	-421.5755	154.9231	158.3514	-361.284	158.2738	140.6232	-358.0474	163.6601	128.9524	-359.6876
433	6	168.2648	113.2381	-299.4285	144.548	147.8613	-329.3167	128.6794	160.5616	-355.7694	121.6205	172.4842	-387.5537	169.6882	197.6509	-356.122	152.2886	202.2163	-390.6295	134.2382	194.3791	-405.9459	186.7439	184.6535	-364.2297	158.2129	181.6358	-397.6485	146.4984	163.3481	-379.5556	193.7609	165.9311	-371.6851	162.4134	159.3148	-395.6534	149.7462	145.4972	-375.854	196.4152	144.4739	-377.5995	168.4757	142.4624	-392.052	158.1818	134.0449	-376.0054	114.769	179.4632	-410.8462	117.3041	182.8182	-416.3036	156.3392	162.2908	-355.8992	159.9041	144.5724	-353.0127	165.5696	132.9234	-354.7514
434	6.013888889	169.4041	115.0642	-294.1498	145.5437	149.9736	-323.5909	129.5146	162.8935	-349.8398	122.5347	174.9373	-381.5957	170.5236	200.091	-349.9252	153.155	204.9846	-384.4033	135.1472	197.2298	-399.8115	187.6416	187.2543	-358.1563	159.254	184.5287	-391.722	147.5017	166.0604	-373.8385	194.7446	168.6433	-365.8068	163.5133	162.2058	-389.9747	150.796	148.2247	-370.3231	197.4952	147.2629	-371.9505	169.6581	145.3787	-386.6161	159.2757	136.8392	-370.6915	115.7244	182.011	-404.8718	118.2685	185.6966	-410.2898	157.3415	164.9003	-350.1863	161.0054	147.2296	-347.5074	166.6108	135.5862	-349.4267
435	6.027777778	170.4831	117.1233	-287.1312	146.8744	151.7691	-317.0817	131.0045	164.4247	-343.5549	124.2832	176.0415	-375.5251	172.145	201.4903	-343.8861	154.9245	206.0636	-378.4825	136.9391	198.1888	-393.8559	189.244	188.4928	-351.9021	160.9834	185.4778	-385.55	149.1164	167.295	-367.4509	196.3032	169.7668	-359.3085	165.11	163.1101	-383.466	152.3174	149.4782	-363.6184	198.9937	148.3059	-365.1928	171.2185	146.3627	-379.9674	160.7436	138.1165	-363.9489	117.6671	182.8027	-398.9496	120.0539	186.5874	-404.2482	158.9059	166.4379	-343.7651	162.5386	148.8263	-340.7958	168.0411	137.164	-342.6556
